<svg width="2399" height="2431" viewBox="0 0 2399 2431" fill="none" xmlns="http://www.w3.org/2000/svg">
<path d="M2240.11 994.729C2267.35 912.914 2276.81 826.223 2267.84 740.459C2258.87 654.695 2231.68 571.836 2188.09 497.431C2123.46 384.884 2024.75 295.78 1906.2 242.974C1787.65 190.169 1655.38 176.393 1528.49 203.634C1471.26 139.134 1400.92 87.6008 1322.17 52.4844C1243.42 17.3679 1158.07 -0.52213 1071.84 0.0116001C942.12 -0.300039 815.646 40.5877 710.655 116.781C605.664 192.975 527.578 300.538 487.653 423.966C403.13 441.261 323.277 476.414 253.441 527.072C183.605 577.73 125.398 642.725 82.7178 717.703C17.5966 829.94 -10.1968 959.96 3.34522 1089.01C16.8872 1218.07 71.0648 1339.48 158.066 1435.76C130.817 1517.58 121.362 1604.28 130.332 1690.06C139.303 1775.83 166.492 1858.7 210.08 1933.12C274.714 2045.66 373.427 2134.76 491.978 2187.56C610.529 2240.37 742.79 2254.15 869.68 2226.91C926.922 2291.41 997.278 2342.93 1076.04 2378.04C1154.8 2413.14 1240.16 2431.02 1326.39 2430.48C1456.18 2430.82 1582.72 2389.92 1687.75 2313.67C1792.78 2237.43 1870.88 2129.79 1910.76 2006.28C1995.27 1988.98 2075.11 1953.82 2144.94 1903.16C2214.76 1852.5 2272.96 1787.51 2315.64 1712.54C2380.69 1600.31 2408.42 1470.33 2394.85 1341.33C2381.27 1212.32 2327.09 1090.96 2240.11 994.729ZM1326.57 2271.76C1220.01 2271.92 1116.78 2234.6 1034.96 2166.33C1038.67 2164.33 1045.17 2160.8 1049.36 2158.19L1533.29 1878.67C1545.45 1871.76 1555.56 1861.74 1562.55 1849.62C1569.55 1837.51 1573.19 1823.75 1573.09 1809.76V1127.44L1777.63 1245.56C1778.7 1246.09 1779.63 1246.88 1780.33 1247.86C1781.03 1248.83 1781.48 1249.97 1781.64 1251.16V1816.21C1781.49 1936.9 1733.51 2052.62 1648.19 2138C1562.88 2223.38 1447.21 2271.46 1326.51 2271.7L1326.57 2271.76ZM347.895 1853.7C294.532 1761.48 275.302 1653.44 293.571 1548.48C297.217 1550.66 303.415 1554.49 307.972 1557.04L791.902 1836.56C803.962 1843.6 817.676 1847.31 831.642 1847.31C845.607 1847.31 859.322 1843.6 871.382 1836.56L1462.26 1495.43V1731.68C1462.33 1732.89 1462.1 1734.09 1461.59 1735.18C1461.08 1736.27 1460.31 1737.22 1459.34 1737.94L970.124 2020.44C865.471 2080.71 741.181 2097.01 624.527 2065.75C507.874 2034.49 408.386 1958.23 347.895 1853.7ZM220.593 797.244C273.748 704.888 357.706 634.182 457.757 597.51C457.757 601.642 457.514 609.056 457.514 614.16V1173.26C457.435 1187.22 461.074 1200.95 468.059 1213.04C475.043 1225.12 485.12 1235.14 497.254 1242.04L1088.07 1583.17L883.535 1701.3C882.522 1701.97 881.358 1702.38 880.148 1702.48C878.939 1702.59 877.722 1702.39 876.608 1701.91L387.27 1419.23C282.802 1358.73 206.589 1259.27 175.344 1142.66C144.098 1026.05 160.371 901.873 220.593 797.244ZM1901.22 1188.39L1310.35 847.192L1514.94 729.126C1515.95 728.472 1517.1 728.074 1518.3 727.968C1519.49 727.862 1520.7 728.051 1521.81 728.519L2011.08 1010.95C2086.04 1054.25 2147.11 1118.01 2187.14 1194.76C2227.17 1271.51 2244.51 1358.08 2237.13 1444.33C2229.75 1530.57 2197.95 1612.93 2145.45 1681.76C2092.96 1750.59 2021.94 1803.05 1940.72 1832.98V1257.17C1940.83 1243.23 1937.23 1229.52 1930.29 1217.43C1923.35 1205.34 1913.31 1195.32 1901.22 1188.39ZM2104.78 881.949C2101.2 879.701 2094.94 875.934 2090.44 873.382L1606.45 593.864C1594.39 586.828 1580.68 583.121 1566.71 583.121C1552.75 583.121 1539.03 586.828 1526.97 593.864L936.157 934.997V698.744C936.088 697.541 936.319 696.34 936.828 695.248C937.337 694.155 938.108 693.206 939.074 692.485L1428.23 410.234C1503.18 366.995 1588.9 345.997 1675.35 349.699C1761.8 353.401 1845.41 381.648 1916.4 431.135C1987.38 480.623 2042.8 549.303 2076.17 629.14C2109.55 708.977 2119.43 796.667 2104.78 881.949ZM824.897 1302.99L620.302 1184.86C619.237 1184.32 618.319 1183.53 617.631 1182.56C616.942 1181.58 616.503 1180.45 616.353 1179.27V614.221C616.425 527.691 641.139 442.971 687.604 369.975C734.069 296.979 800.363 238.727 878.728 202.034C957.092 165.341 1044.29 151.725 1130.11 162.78C1215.93 173.836 1296.83 209.104 1363.33 264.459C1358.5 267.08 1353.72 269.794 1348.99 272.602L865.002 552.119C852.867 559.024 842.79 569.035 835.806 581.124C828.822 593.213 825.182 606.944 825.262 620.905L824.897 1302.99ZM936.035 1063.39L1199.15 911.42L1462.38 1063.33V1367.16L1199.21 1519.07L936.035 1367.16V1063.39Z" fill="white"/>
</svg>
