<svg width="42" height="32" viewBox="0 0 42 32" fill="none" xmlns="http://www.w3.org/2000/svg">
  <path d="M21 1.5C20.4477 1.5 20 1.94772 20 2.5V29.5C20 30.0523 20.4477 30.5 21 30.5C21.5523 30.5 22 30.0523 22 29.5V2.5C22 1.94772 21.5523 1.5 21 1.5Z" fill="#FFBC5E"/>
  <path d="M7 7C6.44772 7 6 7.44772 6 8V24C6 24.5523 6.44772 25 7 25H35C35.5523 25 36 24.5523 36 24V8C36 7.44772 35.5523 7 35 7H7ZM7 6H35C36.1046 6 37 6.89543 37 8V24C37 25.1046 36.1046 26 35 26H7C5.89543 26 5 25.1046 5 24V8C5 6.89543 5.89543 6 7 6Z" fill="#FFDB6E"/>
  <path d="M8 10H34V22H8V10Z" fill="#FFDB6E"/>
  <circle cx="21" cy="16" r="5" fill="#FFBC5E"/>
  <path d="M16 16C16 18.7614 18.2386 21 21 21C23.7614 21 26 18.7614 26 16C26 13.2386 23.7614 11 21 11C18.2386 11 16 13.2386 16 16Z" fill="#FFDB6E"/>
  <path d="M25.7071 14.2929C25.3166 13.9024 24.6834 13.9024 24.2929 14.2929C23.9024 14.6834 23.9024 15.3166 24.2929 15.7071L25.2929 16.7071C25.6834 17.0976 26.3166 17.0976 26.7071 16.7071C27.0976 16.3166 27.0976 15.6834 26.7071 15.2929L25.7071 14.2929Z" fill="#FFBC5E"/>
</svg>