<svg width="113" height="113" viewBox="0 0 113 113" fill="none" xmlns="http://www.w3.org/2000/svg">
<path d="M0 101.104C0 105.139 1.72067 108.343 5.162 110.716C7.06067 111.784 9.078 112.318 11.214 112.318C12.8753 112.318 14.5367 111.903 16.198 111.072L106.088 66.216C107.868 65.2667 109.351 63.902 110.538 62.122C111.725 60.342 112.259 58.3247 112.14 56.07C112.021 53.8153 111.487 51.8573 110.538 50.196C109.589 48.5347 108.105 47.17 106.088 46.102L16.198 1.246C14.5367 0.415333 12.8753 0 11.214 0C9.19667 0 7.17933 0.534001 5.162 1.602C1.72067 3.85667 0 7.06067 0 11.214V101.104Z" fill="white"/>
</svg>
